<svg xmlns="http://www.w3.org/2000/svg" xmlns:xlink="http://www.w3.org/1999/xlink" width="500" zoomAndPan="magnify" viewBox="0 0 375 374.999991" height="500" preserveAspectRatio="xMidYMid meet" version="1.0"><defs><g/><clipPath id="7a6f63cfd9"><rect x="0" width="264" y="0" height="35"/></clipPath></defs><rect x="-37.5" width="450" fill="#ffffff" y="-37.499999" height="449.999989" fill-opacity="1"/><rect x="-37.5" width="450" fill="#ffffff" y="-37.499999" height="449.999989" fill-opacity="1"/><g transform="matrix(1, 0, 0, 1, 56, 169)"><g clip-path="url(#7a6f63cfd9)"><g fill="#0a3771" fill-opacity="1"><g transform="translate(0.418337, 27.056428)"><g><path d="M 14.859375 0 L 11.0625 -5.46875 L 6.875 -5.46875 L 6.875 0 L 2.328125 0 L 2.328125 -19.65625 L 10.84375 -19.65625 C 12.582031 -19.65625 14.09375 -19.363281 15.375 -18.78125 C 16.65625 -18.195312 17.640625 -17.375 18.328125 -16.3125 C 19.023438 -15.25 19.375 -13.984375 19.375 -12.515625 C 19.375 -11.054688 19.019531 -9.796875 18.3125 -8.734375 C 17.613281 -7.679688 16.617188 -6.875 15.328125 -6.3125 L 19.734375 0 Z M 14.765625 -12.515625 C 14.765625 -13.617188 14.410156 -14.46875 13.703125 -15.0625 C 12.992188 -15.65625 11.953125 -15.953125 10.578125 -15.953125 L 6.875 -15.953125 L 6.875 -9.09375 L 10.578125 -9.09375 C 11.953125 -9.09375 12.992188 -9.390625 13.703125 -9.984375 C 14.410156 -10.585938 14.765625 -11.429688 14.765625 -12.515625 Z M 14.765625 -12.515625 "/></g></g></g><g fill="#0a3771" fill-opacity="1"><g transform="translate(21.082198, 27.056428)"><g><path d="M 3.671875 0.21875 C 2.910156 0.21875 2.265625 -0.0390625 1.734375 -0.5625 C 1.210938 -1.082031 0.953125 -1.738281 0.953125 -2.53125 C 0.953125 -3.332031 1.210938 -3.976562 1.734375 -4.46875 C 2.265625 -4.96875 2.910156 -5.21875 3.671875 -5.21875 C 4.441406 -5.21875 5.085938 -4.96875 5.609375 -4.46875 C 6.140625 -3.976562 6.40625 -3.332031 6.40625 -2.53125 C 6.40625 -1.738281 6.140625 -1.082031 5.609375 -0.5625 C 5.085938 -0.0390625 4.441406 0.21875 3.671875 0.21875 Z M 3.671875 0.21875 "/></g></g></g><g fill="#0a3771" fill-opacity="1"><g transform="translate(29.364667, 27.056428)"><g><path d="M 15.28125 -4.21875 L 6.15625 -4.21875 L 4.40625 0 L -0.25 0 L 8.5 -19.65625 L 13 -19.65625 L 21.78125 0 L 17.015625 0 Z M 13.84375 -7.671875 L 10.71875 -15.1875 L 7.609375 -7.671875 Z M 13.84375 -7.671875 "/></g></g></g><g fill="#0a3771" fill-opacity="1"><g transform="translate(51.797364, 27.056428)"><g><path d="M 3.671875 0.21875 C 2.910156 0.21875 2.265625 -0.0390625 1.734375 -0.5625 C 1.210938 -1.082031 0.953125 -1.738281 0.953125 -2.53125 C 0.953125 -3.332031 1.210938 -3.976562 1.734375 -4.46875 C 2.265625 -4.96875 2.910156 -5.21875 3.671875 -5.21875 C 4.441406 -5.21875 5.085938 -4.96875 5.609375 -4.46875 C 6.140625 -3.976562 6.40625 -3.332031 6.40625 -2.53125 C 6.40625 -1.738281 6.140625 -1.082031 5.609375 -0.5625 C 5.085938 -0.0390625 4.441406 0.21875 3.671875 0.21875 Z M 3.671875 0.21875 "/></g></g></g><g fill="#0a3771" fill-opacity="1"><g transform="translate(59.181335, 27.056428)"><g><path d="M 17.546875 -3.65625 L 17.546875 0 L 2.328125 0 L 2.328125 -19.65625 L 17.1875 -19.65625 L 17.1875 -16 L 6.84375 -16 L 6.84375 -11.734375 L 15.96875 -11.734375 L 15.96875 -8.203125 L 6.84375 -8.203125 L 6.84375 -3.65625 Z M 17.546875 -3.65625 "/></g></g></g><g fill="#0a3771" fill-opacity="1"><g transform="translate(78.048339, 27.056428)"><g><path d="M 20.359375 -19.65625 L 20.359375 0 L 16.625 0 L 6.828125 -11.9375 L 6.828125 0 L 2.328125 0 L 2.328125 -19.65625 L 6.09375 -19.65625 L 15.859375 -7.71875 L 15.859375 -19.65625 Z M 20.359375 -19.65625 "/></g></g></g><g fill="#0a3771" fill-opacity="1"><g transform="translate(100.761743, 27.056428)"><g><path d="M 6.40625 -15.953125 L 0.109375 -15.953125 L 0.109375 -19.65625 L 17.234375 -19.65625 L 17.234375 -15.953125 L 10.953125 -15.953125 L 10.953125 0 L 6.40625 0 Z M 6.40625 -15.953125 "/></g></g></g><g fill="#0a3771" fill-opacity="1"><g transform="translate(118.140717, 27.056428)"><g><path d="M 17.546875 -3.65625 L 17.546875 0 L 2.328125 0 L 2.328125 -19.65625 L 17.1875 -19.65625 L 17.1875 -16 L 6.84375 -16 L 6.84375 -11.734375 L 15.96875 -11.734375 L 15.96875 -8.203125 L 6.84375 -8.203125 L 6.84375 -3.65625 Z M 17.546875 -3.65625 "/></g></g></g><g fill="#0a3771" fill-opacity="1"><g transform="translate(137.007721, 27.056428)"><g><path d="M 14.859375 0 L 11.0625 -5.46875 L 6.875 -5.46875 L 6.875 0 L 2.328125 0 L 2.328125 -19.65625 L 10.84375 -19.65625 C 12.582031 -19.65625 14.09375 -19.363281 15.375 -18.78125 C 16.65625 -18.195312 17.640625 -17.375 18.328125 -16.3125 C 19.023438 -15.25 19.375 -13.984375 19.375 -12.515625 C 19.375 -11.054688 19.019531 -9.796875 18.3125 -8.734375 C 17.613281 -7.679688 16.617188 -6.875 15.328125 -6.3125 L 19.734375 0 Z M 14.765625 -12.515625 C 14.765625 -13.617188 14.410156 -14.46875 13.703125 -15.0625 C 12.992188 -15.65625 11.953125 -15.953125 10.578125 -15.953125 L 6.875 -15.953125 L 6.875 -9.09375 L 10.578125 -9.09375 C 11.953125 -9.09375 12.992188 -9.390625 13.703125 -9.984375 C 14.410156 -10.585938 14.765625 -11.429688 14.765625 -12.515625 Z M 14.765625 -12.515625 "/></g></g></g><g fill="#0a3771" fill-opacity="1"><g transform="translate(157.671582, 27.056428)"><g><path d="M 10.84375 -19.65625 C 12.582031 -19.65625 14.09375 -19.363281 15.375 -18.78125 C 16.65625 -18.195312 17.640625 -17.375 18.328125 -16.3125 C 19.023438 -15.25 19.375 -13.984375 19.375 -12.515625 C 19.375 -11.078125 19.023438 -9.816406 18.328125 -8.734375 C 17.640625 -7.660156 16.65625 -6.835938 15.375 -6.265625 C 14.09375 -5.703125 12.582031 -5.421875 10.84375 -5.421875 L 6.875 -5.421875 L 6.875 0 L 2.328125 0 L 2.328125 -19.65625 Z M 10.578125 -9.125 C 11.953125 -9.125 12.992188 -9.414062 13.703125 -10 C 14.410156 -10.59375 14.765625 -11.429688 14.765625 -12.515625 C 14.765625 -13.617188 14.410156 -14.46875 13.703125 -15.0625 C 12.992188 -15.65625 11.953125 -15.953125 10.578125 -15.953125 L 6.875 -15.953125 L 6.875 -9.125 Z M 10.578125 -9.125 "/></g></g></g><g fill="#0a3771" fill-opacity="1"><g transform="translate(177.970416, 27.056428)"><g><path d="M 14.859375 0 L 11.0625 -5.46875 L 6.875 -5.46875 L 6.875 0 L 2.328125 0 L 2.328125 -19.65625 L 10.84375 -19.65625 C 12.582031 -19.65625 14.09375 -19.363281 15.375 -18.78125 C 16.65625 -18.195312 17.640625 -17.375 18.328125 -16.3125 C 19.023438 -15.25 19.375 -13.984375 19.375 -12.515625 C 19.375 -11.054688 19.019531 -9.796875 18.3125 -8.734375 C 17.613281 -7.679688 16.617188 -6.875 15.328125 -6.3125 L 19.734375 0 Z M 14.765625 -12.515625 C 14.765625 -13.617188 14.410156 -14.46875 13.703125 -15.0625 C 12.992188 -15.65625 11.953125 -15.953125 10.578125 -15.953125 L 6.875 -15.953125 L 6.875 -9.09375 L 10.578125 -9.09375 C 11.953125 -9.09375 12.992188 -9.390625 13.703125 -9.984375 C 14.410156 -10.585938 14.765625 -11.429688 14.765625 -12.515625 Z M 14.765625 -12.515625 "/></g></g></g><g fill="#0a3771" fill-opacity="1"><g transform="translate(198.634277, 27.056428)"><g><path d="M 2.328125 -19.65625 L 6.875 -19.65625 L 6.875 0 L 2.328125 0 Z M 2.328125 -19.65625 "/></g></g></g><g fill="#0a3771" fill-opacity="1"><g transform="translate(207.871245, 27.056428)"><g><path d="M 8.78125 0.34375 C 7.226562 0.34375 5.726562 0.132812 4.28125 -0.28125 C 2.832031 -0.707031 1.664062 -1.257812 0.78125 -1.9375 L 2.328125 -5.359375 C 3.171875 -4.742188 4.171875 -4.25 5.328125 -3.875 C 6.492188 -3.5 7.65625 -3.3125 8.8125 -3.3125 C 10.101562 -3.3125 11.054688 -3.503906 11.671875 -3.890625 C 12.296875 -4.273438 12.609375 -4.785156 12.609375 -5.421875 C 12.609375 -5.890625 12.425781 -6.273438 12.0625 -6.578125 C 11.695312 -6.890625 11.226562 -7.140625 10.65625 -7.328125 C 10.082031 -7.515625 9.3125 -7.722656 8.34375 -7.953125 C 6.84375 -8.304688 5.613281 -8.660156 4.65625 -9.015625 C 3.707031 -9.367188 2.890625 -9.9375 2.203125 -10.71875 C 1.515625 -11.507812 1.171875 -12.5625 1.171875 -13.875 C 1.171875 -15.007812 1.476562 -16.039062 2.09375 -16.96875 C 2.71875 -17.894531 3.648438 -18.628906 4.890625 -19.171875 C 6.140625 -19.710938 7.664062 -19.984375 9.46875 -19.984375 C 10.71875 -19.984375 11.941406 -19.832031 13.140625 -19.53125 C 14.335938 -19.238281 15.382812 -18.8125 16.28125 -18.25 L 14.875 -14.796875 C 13.0625 -15.828125 11.25 -16.34375 9.4375 -16.34375 C 8.164062 -16.34375 7.222656 -16.132812 6.609375 -15.71875 C 6.003906 -15.3125 5.703125 -14.769531 5.703125 -14.09375 C 5.703125 -13.414062 6.050781 -12.914062 6.75 -12.59375 C 7.457031 -12.269531 8.53125 -11.945312 9.96875 -11.625 C 11.46875 -11.269531 12.691406 -10.914062 13.640625 -10.5625 C 14.597656 -10.207031 15.414062 -9.644531 16.09375 -8.875 C 16.78125 -8.101562 17.125 -7.0625 17.125 -5.75 C 17.125 -4.632812 16.8125 -3.613281 16.1875 -2.6875 C 15.5625 -1.757812 14.617188 -1.019531 13.359375 -0.46875 C 12.109375 0.0703125 10.582031 0.34375 8.78125 0.34375 Z M 8.78125 0.34375 "/></g></g></g><g fill="#0a3771" fill-opacity="1"><g transform="translate(225.811731, 27.056428)"><g><path d="M 17.546875 -3.65625 L 17.546875 0 L 2.328125 0 L 2.328125 -19.65625 L 17.1875 -19.65625 L 17.1875 -16 L 6.84375 -16 L 6.84375 -11.734375 L 15.96875 -11.734375 L 15.96875 -8.203125 L 6.84375 -8.203125 L 6.84375 -3.65625 Z M 17.546875 -3.65625 "/></g></g></g><g fill="#0a3771" fill-opacity="1"><g transform="translate(244.678735, 27.056428)"><g><path d="M 8.78125 0.34375 C 7.226562 0.34375 5.726562 0.132812 4.28125 -0.28125 C 2.832031 -0.707031 1.664062 -1.257812 0.78125 -1.9375 L 2.328125 -5.359375 C 3.171875 -4.742188 4.171875 -4.25 5.328125 -3.875 C 6.492188 -3.5 7.65625 -3.3125 8.8125 -3.3125 C 10.101562 -3.3125 11.054688 -3.503906 11.671875 -3.890625 C 12.296875 -4.273438 12.609375 -4.785156 12.609375 -5.421875 C 12.609375 -5.890625 12.425781 -6.273438 12.0625 -6.578125 C 11.695312 -6.890625 11.226562 -7.140625 10.65625 -7.328125 C 10.082031 -7.515625 9.3125 -7.722656 8.34375 -7.953125 C 6.84375 -8.304688 5.613281 -8.660156 4.65625 -9.015625 C 3.707031 -9.367188 2.890625 -9.9375 2.203125 -10.71875 C 1.515625 -11.507812 1.171875 -12.5625 1.171875 -13.875 C 1.171875 -15.007812 1.476562 -16.039062 2.09375 -16.96875 C 2.71875 -17.894531 3.648438 -18.628906 4.890625 -19.171875 C 6.140625 -19.710938 7.664062 -19.984375 9.46875 -19.984375 C 10.71875 -19.984375 11.941406 -19.832031 13.140625 -19.53125 C 14.335938 -19.238281 15.382812 -18.8125 16.28125 -18.25 L 14.875 -14.796875 C 13.0625 -15.828125 11.25 -16.34375 9.4375 -16.34375 C 8.164062 -16.34375 7.222656 -16.132812 6.609375 -15.71875 C 6.003906 -15.3125 5.703125 -14.769531 5.703125 -14.09375 C 5.703125 -13.414062 6.050781 -12.914062 6.75 -12.59375 C 7.457031 -12.269531 8.53125 -11.945312 9.96875 -11.625 C 11.46875 -11.269531 12.691406 -10.914062 13.640625 -10.5625 C 14.597656 -10.207031 15.414062 -9.644531 16.09375 -8.875 C 16.78125 -8.101562 17.125 -7.0625 17.125 -5.75 C 17.125 -4.632812 16.8125 -3.613281 16.1875 -2.6875 C 15.5625 -1.757812 14.617188 -1.019531 13.359375 -0.46875 C 12.109375 0.0703125 10.582031 0.34375 8.78125 0.34375 Z M 8.78125 0.34375 "/></g></g></g></g></g></svg>